<svg viewBox="0 0 680 226" role="img" aria-label="算子搬进片上各能净省多少拍（已扣引擎自身开销）" style="width:100%;height:auto;display:block"><line x1="175" y1="10" x2="175" y2="196" stroke="#e1e0d9" stroke-width="1"/><text x="175" y="212" text-anchor="middle" font-size="11" fill="#898781">0</text><line x1="251.15384615384616" y1="10" x2="251.15384615384616" y2="196" stroke="#e1e0d9" stroke-width="1"/><text x="251.15384615384616" y="212" text-anchor="middle" font-size="11" fill="#898781">15</text><line x1="327.3076923076923" y1="10" x2="327.3076923076923" y2="196" stroke="#e1e0d9" stroke-width="1"/><text x="327.3076923076923" y="212" text-anchor="middle" font-size="11" fill="#898781">30</text><line x1="403.46153846153845" y1="10" x2="403.46153846153845" y2="196" stroke="#e1e0d9" stroke-width="1"/><text x="403.46153846153845" y="212" text-anchor="middle" font-size="11" fill="#898781">45</text><line x1="479.61538461538464" y1="10" x2="479.61538461538464" y2="196" stroke="#e1e0d9" stroke-width="1"/><text x="479.61538461538464" y="212" text-anchor="middle" font-size="11" fill="#898781">60</text><line x1="175" y1="10" x2="175" y2="196" stroke="#c3c2b7" stroke-width="1"/><path d="M175,14 L464.95384615384614,14 A4,4 0 0 1 468.95384615384614,18 L468.95384615384614,28 A4,4 0 0 1 464.95384615384614,32 L175,32 Z" fill="#2a78d6" data-tip="RMS/LN/Ada/GN 共 423 步。占全部边界代价的 49%，最大单项。约 9,000 LUT，两级累加器保整数精度"/><text x="165" y="27.5" text-anchor="end" font-size="12.5" fill="#52514e">norm 归一化族</text><text x="476.95384615384614" y="27.5" font-size="12.5" font-weight="600" fill="#0b0b0b">57.9 M · 291 ms</text><path d="M175,50 L249.69230769230768,50 A4,4 0 0 1 253.69230769230768,54 L253.69230769230768,64 A4,4 0 0 1 249.69230769230768,68 L175,68 Z" fill="#2a78d6" data-tip="SM16 已在片上，只缺独立调用的描述符。184/220 处零新数据通路，约 1,800 LUT"/><text x="165" y="63.5" text-anchor="end" font-size="12.5" fill="#52514e">softmax 独立调用</text><text x="261.6923076923077" y="63.5" font-size="12.5" font-weight="600" fill="#0b0b0b">15.5 M · 78 ms</text><path d="M175,86 L242.58461538461538,86 A4,4 0 0 1 246.58461538461538,90 L246.58461538461538,100 A4,4 0 0 1 242.58461538461538,104 L175,104 Z" fill="#2a78d6" data-tip="INT8 输入只有 256 种取值，256×8 直查表与 host 可同舍入位精确，新增误差≈0。约 1,500 LUT"/><text x="165" y="99.5" text-anchor="end" font-size="12.5" fill="#52514e">actv（SiLU/GELU）</text><text x="254.58461538461538" y="99.5" font-size="12.5" font-weight="600" fill="#0b0b0b">14.1 M · 71 ms</text><path d="M175,122 L241.56923076923078,122 A4,4 0 0 1 245.56923076923078,126 L245.56923076923078,136 A4,4 0 0 1 241.56923076923078,140 L175,140 Z" fill="#2a78d6" data-tip="硬件散射引擎约 2,500 LUT。不做它就覆盖不了 backbone 的 26.5M 边界代价"/><text x="165" y="135.5" text-anchor="end" font-size="12.5" fill="#52514e">swin 窗口散射</text><text x="253.56923076923078" y="135.5" font-size="12.5" font-weight="600" fill="#0b0b0b">13.9 M · 70 ms</text><path d="M175,158 L204.5076923076923,158 A4,4 0 0 1 208.5076923076923,162 L208.5076923076923,172 A4,4 0 0 1 204.5076923076923,176 L175,176 Z" fill="#2a78d6" data-tip="cos/sin 表进 BRAM + 成对双乘，边际约 1,000 LUT"/><text x="165" y="171.5" text-anchor="end" font-size="12.5" fill="#52514e">rotary 旋转</text><text x="216.5076923076923" y="171.5" font-size="12.5" font-weight="600" fill="#0b0b0b">6.6 M · 33 ms</text></svg>