<svg viewBox="0 0 680 190" role="img" aria-label="拍数估算 vs 实测（单位：百万拍）" style="width:100%;height:auto;display:block"><line x1="175" y1="10" x2="175" y2="160" stroke="#e1e0d9" stroke-width="1"/><text x="175" y="176" text-anchor="middle" font-size="11" fill="#898781">0</text><line x1="257.5" y1="10" x2="257.5" y2="160" stroke="#e1e0d9" stroke-width="1"/><text x="257.5" y="176" text-anchor="middle" font-size="11" fill="#898781">300</text><line x1="340" y1="10" x2="340" y2="160" stroke="#e1e0d9" stroke-width="1"/><text x="340" y="176" text-anchor="middle" font-size="11" fill="#898781">600</text><line x1="422.5" y1="10" x2="422.5" y2="160" stroke="#e1e0d9" stroke-width="1"/><text x="422.5" y="176" text-anchor="middle" font-size="11" fill="#898781">900</text><line x1="505" y1="10" x2="505" y2="160" stroke="#e1e0d9" stroke-width="1"/><text x="505" y="176" text-anchor="middle" font-size="11" fill="#898781">1200</text><line x1="175" y1="10" x2="175" y2="160" stroke="#c3c2b7" stroke-width="1"/><path d="M175,14 L257.075,14 A4,4 0 0 1 261.075,18 L261.075,28 A4,4 0 0 1 257.075,32 L175,32 Z" fill="#2a78d6" data-tip="compiler manifest 的估算：313.0M 拍 ≈ 1.58s @198.5MHz"/><text x="165" y="27.5" text-anchor="end" font-size="12.5" fill="#52514e">v0 估算（原口径）</text><text x="269.075" y="27.5" font-size="12.5" font-weight="600" fill="#0b0b0b">313.0 M</text><path d="M175,50 L320.73749999999995,50 A4,4 0 0 1 324.73749999999995,54 L324.73749999999995,64 A4,4 0 0 1 320.73749999999995,68 L175,68 Z" fill="#2a78d6" data-tip="同一模型在修复 dma_len 后的流上重估：544.5M（+74%）"/><text x="165" y="63.5" text-anchor="end" font-size="12.5" fill="#52514e">修长度读法后</text><text x="332.73749999999995" y="63.5" font-size="12.5" font-weight="600" fill="#0b0b0b">544.5 M · +74%</text><path d="M175,86 L406.06999999999994,86 A4,4 0 0 1 410.06999999999994,90 L410.06999999999994,100 A4,4 0 0 1 406.06999999999994,104 L175,104 Z" fill="#2a78d6" data-tip="修掉 gemm 组数被除小 16 倍的 bug 后：854.8M（+57%）"/><text x="165" y="99.5" text-anchor="end" font-size="12.5" fill="#52514e">再修乘法器除法后</text><text x="418.06999999999994" y="99.5" font-size="12.5" font-weight="600" fill="#0b0b0b">854.8 M · +57%</text><path d="M175,122 L468.21999999999997,122 A4,4 0 0 1 472.21999999999997,126 L472.21999999999997,136 A4,4 0 0 1 468.21999999999997,140 L175,140 Z" fill="#2a78d6" data-tip="441 类型全实测：1080.8M 拍（部署口径 pf1）。剩余 21% 差 = LFSR 读停顿/仲裁等模型未含的开销"/><text x="165" y="135.5" text-anchor="end" font-size="12.5" fill="#52514e">Verilator 实测</text><text x="480.21999999999997" y="135.5" font-size="12.5" font-weight="600" fill="#0b0b0b">1080.8 M · +26%</text></svg>