<svg viewBox="0 0 680 226" role="img" aria-label="基线的拍数都花在哪（新锚定口径，repro=1216.5M）" style="width:100%;height:auto;display:block"><line x1="175" y1="10" x2="175" y2="196" stroke="#e1e0d9" stroke-width="1"/><text x="175" y="212" text-anchor="middle" font-size="11" fill="#898781">0</text><line x1="248.33333333333331" y1="10" x2="248.33333333333331" y2="196" stroke="#e1e0d9" stroke-width="1"/><text x="248.33333333333331" y="212" text-anchor="middle" font-size="11" fill="#898781">100</text><line x1="321.66666666666663" y1="10" x2="321.66666666666663" y2="196" stroke="#e1e0d9" stroke-width="1"/><text x="321.66666666666663" y="212" text-anchor="middle" font-size="11" fill="#898781">200</text><line x1="395" y1="10" x2="395" y2="196" stroke="#e1e0d9" stroke-width="1"/><text x="395" y="212" text-anchor="middle" font-size="11" fill="#898781">300</text><line x1="468.3333333333333" y1="10" x2="468.3333333333333" y2="196" stroke="#e1e0d9" stroke-width="1"/><text x="468.3333333333333" y="212" text-anchor="middle" font-size="11" fill="#898781">400</text><line x1="175" y1="10" x2="175" y2="196" stroke="#c3c2b7" stroke-width="1"/><path d="M175,14 L476.50666666666666,14 A4,4 0 0 1 480.50666666666666,18 L480.50666666666666,28 A4,4 0 0 1 476.50666666666666,32 L175,32 Z" fill="#2a78d6" data-tip="激活装载是新口径下的第一大项——旧账把它记成 15.3% 是因为没算 DDR 从机与 LFSR 开销"/><text x="165" y="27.5" text-anchor="end" font-size="12.5" fill="#52514e">LOAD_CTX</text><text x="488.50666666666666" y="27.5" font-size="12.5" font-weight="600" fill="#0b0b0b">416.6 M · 34.3%</text><path d="M175,50 L425.61333333333334,50 A4,4 0 0 1 429.61333333333334,54 L429.61333333333334,64 A4,4 0 0 1 425.61333333333334,68 L175,68 Z" fill="#2a78d6" data-tip="矩阵乘本体。旧账的 599.1M/55.4% 用了全局列数而非实际列数，高估约 66%"/><text x="165" y="63.5" text-anchor="end" font-size="12.5" fill="#52514e">GEMM</text><text x="437.61333333333334" y="63.5" font-size="12.5" font-weight="600" fill="#0b0b0b">347.2 M · 28.5%</text><path d="M175,86 L373.76666666666665,86 A4,4 0 0 1 377.76666666666665,90 L377.76666666666665,100 A4,4 0 0 1 373.76666666666665,104 L175,104 Z" fill="#2a78d6" data-tip="写回 DDR，751.5MB 全是唯一输出"/><text x="165" y="99.5" text-anchor="end" font-size="12.5" fill="#52514e">STORE</text><text x="385.76666666666665" y="99.5" font-size="12.5" font-weight="600" fill="#0b0b0b">276.5 M · 22.7%</text><path d="M175,122 L267.94666666666666,122 A4,4 0 0 1 271.94666666666666,126 L271.94666666666666,136 A4,4 0 0 1 267.94666666666666,140 L175,140 Z" fill="#2a78d6" data-tip="权重装载，大部分已被预取遮蔽"/><text x="165" y="135.5" text-anchor="end" font-size="12.5" fill="#52514e">LOAD_W</text><text x="279.94666666666666" y="135.5" font-size="12.5" font-weight="600" fill="#0b0b0b">132.2 M · 10.9%</text><path d="M175,158 L200.55333333333334,158 A4,4 0 0 1 204.55333333333334,162 L204.55333333333334,172 A4,4 0 0 1 200.55333333333334,176 L175,176 Z" fill="#2a78d6" data-tip="片上重排"/><text x="165" y="171.5" text-anchor="end" font-size="12.5" fill="#52514e">COPY</text><text x="212.55333333333334" y="171.5" font-size="12.5" font-weight="600" fill="#0b0b0b">40.3 M · 3.3%</text></svg>